<?xml version="1.0" encoding="UTF-8"?>
<svg version="1.1" xmlns="http://www.w3.org/2000/svg" width="92" height="100">
<path d="M0 0 C0.99 0.33 1.98 0.66 3 1 C2.34 2.32 1.68 3.64 1 5 C0.34 5 -0.32 5 -1 5 C-1.10183594 5.70511719 -1.20367187 6.41023438 -1.30859375 7.13671875 C-2.09914812 10.41059645 -3.40523734 12.88584467 -5.0625 15.8125 C-5.61035156 16.78832031 -6.15820312 17.76414062 -6.72265625 18.76953125 C-7.14417969 19.50558594 -7.56570312 20.24164063 -8 21 C-7.34 21.33 -6.68 21.66 -6 22 C-6.33 22.66 -6.66 23.32 -7 24 C-7 26.01433807 -6.99833786 28.02874838 -6.9765625 30.04296875 C-7.02453656 34.04880286 -8.47411765 37.33788237 -10 41 C-11.98 40.01 -13.96 39.02 -16 38 C-16 39.98 -16 41.96 -16 44 C-15.67 44 -15.34 44 -15 44 C-15 47.33333333 -15 50.66666667 -15 54 C-14.979375 55.19625 -14.95875 56.3925 -14.9375 57.625 C-15 61 -15 61 -16 62 C-15.979375 62.763125 -15.95875 63.52625 -15.9375 64.3125 C-16.00493453 67.2121849 -16.32037484 68.64852478 -18 71 C-19.85742188 71.72412109 -19.85742188 71.72412109 -22 72 C-24.6328311 70.63116082 -27.02696569 69.23847481 -29.5 67.625 C-30.81995018 66.77920668 -32.14278723 65.9378983 -33.46875 65.1015625 C-34.05076172 64.72338379 -34.63277344 64.34520508 -35.23242188 63.95556641 C-37.1857102 62.89960363 -38.79384188 62.2822751 -41 62 C-41.66 62.66 -42.32 63.32 -43 64 C-45.94723618 59.38693467 -45.94723618 59.38693467 -46.2578125 57.109375 C-47.40087295 53.86067689 -49.73300511 52.55386868 -52.4375 50.5 C-58.89010947 45.58693099 -58.89010947 45.58693099 -60 42 C-59 39 -59 39 -57.07421875 37.97265625 C-56.28660156 37.67230469 -55.49898437 37.37195312 -54.6875 37.0625 C-51.03010276 35.55411483 -48.55844817 34.11463255 -46 31 C-46 31.66 -46 32.32 -46 33 C-44.80375 32.505 -43.6075 32.01 -42.375 31.5 C-38.75535354 30.12261241 -35.88347811 29.90968656 -32 30 C-31.01 29.34 -30.02 28.68 -29 28 C-30.65 26.68 -32.3 25.36 -34 24 C-30.14239686 19.95870148 -26.38957006 18.38613482 -21.15625 16.78125 C-18.75305559 16.00732212 -18.75305559 16.00732212 -16 14 C-15.01 14 -14.02 14 -13 14 C-11.22901802 12.37217905 -11.22901802 12.37217905 -9.5625 10.25 C-7.14551671 7.36389759 -4.71478357 4.61423603 -2 2 C-1.34 1.34 -0.68 0.68 0 0 Z M-18 36 C-17.67 36.99 -17.34 37.98 -17 39 C-17 38.01 -17 37.02 -17 36 C-17.33 36 -17.66 36 -18 36 Z " fill="#060608" transform="translate(68,17)"/>
<path d="M0 0 C1 3 1 3 -0.1796875 5.375 C-0.73914063 6.24125 -1.29859375 7.1075 -1.875 8 C-3.61844427 10.72463848 -4.97397802 12.92193407 -6 16 C-5.34 16.33 -4.68 16.66 -4 17 C-4.33 17.66 -4.66 18.32 -5 19 C-5 21.01433807 -4.99833786 23.02874838 -4.9765625 25.04296875 C-5.02453656 29.04880286 -6.47411765 32.33788237 -8 36 C-9.98 35.01 -11.96 34.02 -14 33 C-14 34.98 -14 36.96 -14 39 C-13.67 39 -13.34 39 -13 39 C-13 42.33333333 -13 45.66666667 -13 49 C-12.979375 50.19625 -12.95875 51.3925 -12.9375 52.625 C-13 56 -13 56 -14 57 C-13.979375 57.763125 -13.95875 58.52625 -13.9375 59.3125 C-14.00493453 62.2121849 -14.32037484 63.64852478 -16 66 C-17.85742188 66.72412109 -17.85742188 66.72412109 -20 67 C-22.6328311 65.63116082 -25.02696569 64.23847481 -27.5 62.625 C-28.81995018 61.77920668 -30.14278723 60.9378983 -31.46875 60.1015625 C-32.05076172 59.72338379 -32.63277344 59.34520508 -33.23242188 58.95556641 C-35.1857102 57.89960363 -36.79384188 57.2822751 -39 57 C-39.66 57.66 -40.32 58.32 -41 59 C-41 55.61579486 -40.55796384 55.02883551 -38.61328125 52.40234375 C-38.09378906 51.69271484 -37.57429688 50.98308594 -37.0390625 50.25195312 C-36.46929687 49.48818359 -35.89953125 48.72441406 -35.3125 47.9375 C-34.11049071 46.30091812 -32.90867301 44.66419551 -31.70703125 43.02734375 C-31.08908691 42.19058105 -30.47114258 41.35381836 -29.83447266 40.49169922 C-27.02883248 36.68089757 -24.26536013 32.84007193 -21.5 29 C-20.43116082 27.52070959 -19.3621492 26.04154377 -18.29296875 24.5625 C-15.97804583 21.35775896 -13.66920086 18.14872475 -11.36328125 14.9375 C-10.76902344 14.11121094 -10.17476562 13.28492188 -9.5625 12.43359375 C-8.41907768 10.84352208 -7.27708747 9.25241933 -6.13671875 7.66015625 C-5.62367187 6.94730469 -5.110625 6.23445313 -4.58203125 5.5 C-4.13061768 4.8709375 -3.6792041 4.241875 -3.21411133 3.59375 C-2 2 -2 2 0 0 Z M-16 31 C-15.67 31.99 -15.34 32.98 -15 34 C-15 33.01 -15 32.02 -15 31 C-15.33 31 -15.66 31 -16 31 Z " fill="#6A6A6A" transform="translate(66,22)"/>
<path d="M0 0 C0.99 0.33 1.98 0.66 3 1 C1.52861945 4.87909417 -0.45361125 6.01056241 -4 8 C-4.53625 8.53625 -5.0725 9.0725 -5.625 9.625 C-7 11 -7 11 -10 12 C-8.32598022 8.04322598 -5.86850715 5.15535787 -3 2 C-2.34 2 -1.68 2 -1 2 C-0.67 1.34 -0.34 0.68 0 0 Z " fill="#171718" transform="translate(68,17)"/>
<path d="" fill="#000000" transform="translate(0,0)"/>
<path d="" fill="#000000" transform="translate(0,0)"/>
<path d="" fill="#000000" transform="translate(0,0)"/>
<path d="" fill="#000000" transform="translate(0,0)"/>
</svg>
